<svg xmlns="http://www.w3.org/2000/svg" xmlns:xlink="http://www.w3.org/1999/xlink" width="500" zoomAndPan="magnify" viewBox="0 0 375 374.999991" height="500" preserveAspectRatio="xMidYMid meet" version="1.0"><defs><clipPath id="b2e64f0ce2"><path d="M 116.25 125 L 162 125 L 162 175 L 116.25 175 Z M 116.25 125 " clip-rule="nonzero"/></clipPath><clipPath id="675633e683"><path d="M 116.25 179 L 249 179 L 249 184.742188 L 116.25 184.742188 Z M 116.25 179 " clip-rule="nonzero"/></clipPath></defs><path fill="#94cfc4" d="M 235.730469 90.28125 C 235.175781 89.285156 220.453125 89.316406 219.664062 90.28125 C 217.6875 92.695312 218.878906 123.332031 218.917969 135.199219 C 218.878906 147.070312 217.6875 177.707031 219.664062 180.117188 C 220.453125 181.085938 235.175781 181.117188 235.730469 180.117188 C 237.40625 177.125 236.238281 147.320312 236.179688 135.199219 C 236.238281 123.078125 237.40625 93.277344 235.730469 90.28125 Z M 235.730469 90.28125 " fill-opacity="1" fill-rule="nonzero"/><path fill="#a8d7cf" d="M 234.328125 98.023438 C 233.867188 97.199219 221.683594 97.222656 221.027344 98.023438 C 219.394531 100.019531 220.378906 125.378906 220.410156 135.199219 C 220.378906 145.023438 219.394531 170.378906 221.027344 172.378906 C 221.683594 173.179688 233.867188 173.203125 234.328125 172.378906 C 235.710938 169.902344 234.746094 145.234375 234.699219 135.199219 C 234.746094 125.167969 235.710938 100.5 234.328125 98.023438 Z M 234.328125 98.023438 " fill-opacity="1" fill-rule="nonzero"/><path fill="#ed8876" d="M 193.214844 90.28125 C 192.65625 89.285156 177.9375 89.316406 177.148438 90.28125 C 175.171875 92.695312 176.363281 123.332031 176.402344 135.199219 C 176.363281 147.070312 175.171875 177.707031 177.148438 180.117188 C 177.9375 181.085938 192.65625 181.117188 193.214844 180.117188 C 194.890625 177.125 193.722656 147.320312 193.664062 135.199219 C 193.722656 123.078125 194.890625 93.277344 193.214844 90.28125 Z M 193.214844 90.28125 " fill-opacity="1" fill-rule="nonzero"/><path fill="#eea193" d="M 190.347656 106.070312 C 189.988281 105.425781 182.269531 105.671875 181.757812 106.300781 C 180.476562 107.863281 179.417969 127.503906 179.445312 135.203125 C 179.417969 142.898438 178.648438 162.765625 179.929688 164.332031 C 180.441406 164.960938 189.988281 164.976562 190.347656 164.332031 C 191.433594 162.390625 190.679688 143.0625 190.640625 135.203125 C 190.679688 127.339844 191.433594 108.011719 190.347656 106.070312 Z M 190.347656 106.070312 " fill-opacity="1" fill-rule="nonzero"/><path fill="#f7b07e" d="M 175.277344 98.085938 C 174.71875 97.175781 160 97.203125 159.210938 98.085938 C 157.234375 100.292969 158.425781 128.289062 158.464844 139.136719 C 158.425781 149.980469 157.234375 177.976562 159.210938 180.183594 C 160 181.066406 174.71875 181.09375 175.277344 180.183594 C 176.953125 177.449219 175.785156 150.210938 175.726562 139.136719 C 175.785156 128.058594 176.953125 100.824219 175.277344 98.085938 Z M 175.277344 98.085938 " fill-opacity="1" fill-rule="nonzero"/><path fill="#f3966e" d="M 175.988281 175.667969 C 176.082031 174.0625 176.136719 172.128906 176.164062 169.980469 L 158.109375 169.980469 C 158.148438 172.132812 158.222656 174.066406 158.339844 175.667969 Z M 175.988281 175.667969 " fill-opacity="1" fill-rule="nonzero"/><path fill="#f3966e" d="M 158.082031 110.757812 C 158.074219 111.734375 158.070312 112.742188 158.074219 113.769531 L 176.167969 113.769531 C 176.175781 112.742188 176.175781 111.738281 176.175781 110.757812 Z M 158.082031 110.757812 " fill-opacity="1" fill-rule="nonzero"/><path fill="#f3966e" d="M 176.164062 108.417969 C 176.152344 107.429688 176.136719 106.480469 176.113281 105.59375 L 158.179688 105.59375 C 158.148438 106.480469 158.125 107.425781 158.109375 108.417969 Z M 176.164062 108.417969 " fill-opacity="1" fill-rule="nonzero"/><path fill="#f7b07e" d="M 218.558594 91.082031 C 218.09375 90.039062 203.433594 88.71875 202.554688 89.613281 C 200.367188 91.835938 198.746094 122.449219 197.699219 134.273438 C 196.574219 146.089844 192.578125 176.488281 194.324219 179.070312 C 195.023438 180.105469 209.679688 181.484375 210.324219 180.542969 C 212.269531 177.714844 213.835938 147.929688 214.886719 135.851562 C 216.058594 123.789062 219.949219 94.214844 218.558594 91.082031 Z M 218.558594 91.082031 " fill-opacity="1" fill-rule="nonzero"/><path fill="#f49e6d" d="M 203.015625 102.519531 C 207.996094 103.828125 213.171875 104.179688 218.128906 105.527344 C 218.25 104.246094 218.355469 103.007812 218.449219 101.832031 C 212.523438 100.746094 206.597656 99.632812 200.683594 98.472656 C 200.546875 99.621094 200.410156 100.851562 200.28125 102.136719 C 201.1875 102.160156 202.105469 102.28125 203.015625 102.519531 Z M 203.015625 102.519531 " fill-opacity="1" fill-rule="nonzero"/><path fill="#f49e6d" d="M 212.074219 170.964844 C 212.269531 169.183594 212.457031 167.234375 212.640625 165.1875 C 212.457031 165.164062 212.269531 165.144531 212.085938 165.121094 C 206.273438 164.394531 200.410156 163.671875 194.734375 162.214844 C 194.558594 164.132812 194.394531 165.980469 194.265625 167.710938 C 200.109375 169.210938 206.089844 170.113281 212.074219 170.964844 Z M 212.074219 170.964844 " fill-opacity="1" fill-rule="nonzero"/><path fill="#ed8876" d="M 155.210938 166.355469 C 155.210938 171.484375 152.914062 176.273438 148.675781 179.128906 C 147.511719 179.910156 145.601562 181.050781 144.273438 181.503906 C 142.5625 182.089844 140.503906 182.546875 138.6875 182.546875 C 132.414062 182.546875 126.378906 178.683594 124.28125 172.757812 C 123.640625 170.933594 122.9375 168.296875 122.9375 166.355469 C 122.9375 162.332031 122.9375 158.515625 126.40625 155.300781 C 128.757812 153.128906 133.445312 151.125 138.160156 152.460938 C 138.453125 152.542969 138.765625 152.441406 139.074219 152.441406 C 139.382812 152.441406 139.703125 152.546875 139.996094 152.460938 C 144.738281 151.082031 149.613281 152.503906 151.949219 156.203125 C 153.550781 158.734375 155.210938 162.71875 155.210938 166.355469 Z M 155.210938 166.355469 " fill-opacity="1" fill-rule="nonzero"/><g clip-path="url(#b2e64f0ce2)"><path stroke-linecap="round" transform="matrix(0.446345, 0, 0, 0.446097, 87.776586, 42.168619)" fill="none" stroke-linejoin="miter" d="M 109.703369 235.242193 C 111.138636 234.979497 113.020237 237.448833 113.501576 238.622206 C 114.009171 239.830604 114.315478 241.074029 114.683046 242.291184 C 115.103124 243.674712 115.190641 245.137049 115.40068 246.59063 C 115.505699 247.31742 115.750745 248.105506 115.680732 248.84981 " stroke="#ed8876" stroke-width="3.457" stroke-opacity="1" stroke-miterlimit="10"/></g><path stroke-linecap="round" transform="matrix(0.446345, 0, 0, 0.446097, 87.776586, 42.168619)" fill="none" stroke-linejoin="round" d="M 121.719356 232.860422 C 121.439304 233.674777 121.710604 234.743072 121.553075 235.618723 C 121.351788 236.730799 121.036729 237.877902 120.310344 238.76231 C 119.548952 239.71677 116.590901 241.109055 115.409432 240.399777 C 114.061681 239.585422 115.917026 236.170383 116.52964 235.347271 C 117.527326 234.007525 119.758991 232.553944 121.500565 232.720318 " stroke="#ed8876" stroke-width="3.457" stroke-opacity="1" stroke-miterlimit="10"/><path fill="#ee9d8f" d="M 131.28125 155.332031 C 130.902344 155.464844 130.535156 155.476562 130.164062 155.621094 C 129.875 155.734375 129.585938 155.863281 129.3125 156 C 128.714844 156.300781 128.207031 156.789062 127.886719 157.367188 C 127.535156 158.003906 127.226562 158.59375 127.226562 159.355469 C 127.226562 159.957031 127.160156 160.835938 127.488281 161.324219 C 127.765625 160.910156 127.777344 160.136719 127.933594 159.621094 C 128.132812 158.957031 128.542969 158.367188 128.9375 157.796875 C 129.394531 157.132812 130.011719 156.585938 130.742188 156.253906 C 131.28125 156.003906 131.871094 155.632812 132.453125 155.550781 C 131.808594 155.269531 130.972656 155.484375 130.3125 155.554688 " fill-opacity="1" fill-rule="nonzero"/><g clip-path="url(#675633e683)"><path fill="#ca9e67" d="M 248.964844 182.023438 C 248.964844 183.335938 248.171875 184.402344 247.191406 184.402344 C 246.214844 184.402344 245.234375 184.40625 244.257812 184.402344 C 241.46875 184.398438 238.679688 184.398438 235.894531 184.402344 C 231.828125 184.40625 227.757812 184.40625 223.691406 184.40625 C 218.59375 184.402344 213.652344 184.53125 208.554688 184.53125 C 198.503906 184.53125 188.503906 184.703125 178.453125 184.699219 C 171.410156 184.699219 164.101562 184.699219 157.054688 184.699219 C 151.890625 184.699219 146.789062 184.390625 141.625 184.386719 C 137.671875 184.382812 133.558594 184.546875 129.605469 184.5625 C 126.328125 184.574219 123.214844 184.398438 119.9375 184.308594 C 118.300781 184.261719 116.6875 184.585938 116.402344 182.527344 C 116.242188 181.386719 116.714844 179.644531 118.175781 179.644531 C 119.136719 179.644531 120.097656 179.636719 121.054688 179.640625 C 123.820312 179.652344 126.582031 179.660156 129.347656 179.652344 C 140.65625 179.628906 151.964844 179.6875 163.277344 179.644531 C 174.703125 179.613281 186.128906 179.71875 197.554688 179.65625 C 206.035156 179.609375 214.515625 179.652344 222.996094 179.703125 C 226.949219 179.726562 230.898438 179.617188 234.851562 179.539062 C 238.417969 179.46875 241.472656 179.496094 245.570312 179.738281 C 247.265625 179.835938 248.964844 179.675781 248.964844 182.023438 Z M 248.964844 182.023438 " fill-opacity="1" fill-rule="nonzero"/></g></svg>